<?xml version="1.0" standalone="no"?>
<!DOCTYPE svg PUBLIC "-//W3C//DTD SVG 20010904//EN"
 "http://www.w3.org/TR/2001/REC-SVG-20010904/DTD/svg10.dtd">
<svg version="1.0" xmlns="http://www.w3.org/2000/svg"
 width="1920.000000pt" height="1920.000000pt" viewBox="0 0 1920.000000 1920.000000"
 preserveAspectRatio="xMidYMid meet">

<g transform="translate(0.000000,1920.000000) scale(0.100000,-0.100000)"
fill="#000000" stroke="none">
<path d="M9870 17961 c-95 -31 -151 -63 -217 -125 -78 -72 -104 -120 -111
-203 -5 -70 6 -93 44 -93 27 0 49 29 59 80 24 119 154 227 289 237 84 7 127
-8 174 -63 91 -102 79 -252 -35 -449 -82 -142 -152 -226 -378 -451 -122 -121
-230 -232 -238 -245 -15 -23 -15 -27 -1 -47 21 -30 87 -29 229 3 139 31 216
31 361 0 64 -14 141 -25 173 -25 138 0 271 87 271 177 0 58 -46 71 -80 23 -13
-19 -36 -34 -63 -41 -58 -16 -192 -6 -302 22 -63 16 -121 23 -193 23 l-104 1
79 69 c255 225 476 492 532 642 28 75 29 201 1 263 -80 176 -294 264 -490 202z"/>
<path d="M9144 17906 c-17 -8 -63 -51 -102 -97 -96 -115 -225 -234 -290 -268
-51 -27 -102 -83 -102 -112 0 -81 115 -42 298 103 34 27 62 46 62 41 0 -4 -7
-51 -15 -104 -24 -164 -80 -380 -160 -624 -51 -155 -77 -265 -70 -292 5 -21
11 -23 63 -23 66 0 133 27 156 62 17 26 26 64 56 228 20 108 39 205 76 380 52
251 115 464 166 562 47 93 46 121 -7 144 -43 17 -90 17 -131 0z"/>
<path d="M5515 16862 c-17 -11 -50 -45 -75 -78 -77 -102 -233 -244 -315 -287
-47 -24 -78 -63 -78 -98 0 -17 6 -35 14 -39 32 -20 121 22 244 115 48 36 88
65 91 65 30 0 -68 -427 -166 -720 -48 -143 -71 -239 -68 -278 3 -37 3 -37 53
-40 68 -5 118 12 152 51 23 26 32 52 47 132 105 581 182 888 260 1044 42 82
45 114 14 135 -32 23 -134 21 -173 -2z"/>
<path d="M6293 16842 c-21 -21 -65 -69 -97 -108 -72 -84 -159 -162 -246 -219
-36 -24 -74 -52 -84 -64 -23 -25 -26 -79 -5 -91 35 -22 150 37 286 146 23 19
44 34 48 34 27 0 -66 -411 -152 -675 -72 -222 -94 -310 -86 -342 5 -21 11 -23
64 -23 33 0 74 6 92 14 65 27 74 48 112 242 19 98 42 213 50 254 8 41 17 86
20 100 39 214 123 506 176 613 21 43 39 88 39 102 0 38 -35 55 -112 55 -64 0
-69 -2 -105 -38z"/>
<path d="M13395 16823 c-34 -18 -47 -31 -90 -88 -73 -98 -233 -243 -316 -286
-51 -26 -81 -66 -77 -103 3 -27 7 -31 36 -34 40 -4 108 32 235 125 58 41 87
58 84 46 -3 -10 -8 -45 -11 -78 -11 -100 -93 -445 -131 -544 -20 -53 -82 -258
-95 -318 -17 -77 -9 -93 49 -93 63 0 136 26 160 57 11 13 24 48 30 76 70 373
91 474 138 682 36 158 87 316 130 406 32 69 43 103 38 119 -14 45 -121 65
-180 33z"/>
<path d="M2558 14148 c-16 -5 -56 -45 -93 -93 -77 -99 -174 -189 -288 -266
-95 -64 -117 -94 -99 -133 16 -36 51 -34 121 6 45 26 158 103 218 150 9 7 10
-5 7 -49 -12 -126 -72 -373 -159 -648 -77 -244 -89 -293 -75 -323 10 -23 15
-24 69 -19 75 6 134 37 154 80 9 18 23 74 32 123 8 49 22 123 30 164 9 41 23
111 31 155 78 386 131 578 200 717 44 88 42 120 -7 137 -39 13 -104 13 -141
-1z"/>
<path d="M3424 14136 c-187 -59 -364 -244 -465 -486 -49 -117 -82 -296 -75
-400 17 -223 91 -361 230 -426 40 -19 67 -24 131 -24 137 1 269 59 385 172
114 111 183 223 236 380 44 132 58 227 50 352 -15 213 -97 367 -230 427 -49
22 -198 25 -262 5z m212 -145 c73 -33 117 -94 150 -206 53 -185 -32 -474 -208
-703 -82 -106 -192 -174 -294 -180 -99 -7 -144 29 -185 145 -30 85 -31 287 -1
399 86 323 282 557 472 563 14 0 43 -8 66 -18z"/>
<path d="M15946 14119 c-67 -16 -180 -76 -233 -123 -27 -25 -64 -72 -82 -105
-28 -53 -32 -69 -29 -123 l3 -63 40 0 c43 0 43 0 65 92 7 29 28 61 65 101 70
76 146 112 237 113 77 1 112 -14 160 -71 62 -71 72 -151 37 -266 -61 -198
-173 -351 -481 -655 -125 -125 -228 -233 -228 -241 0 -27 35 -48 81 -48 24 0
96 12 159 26 98 22 130 25 220 21 58 -3 129 -13 160 -23 36 -12 88 -18 150
-18 84 -1 102 2 150 26 72 35 119 84 127 131 10 64 -37 90 -75 42 -46 -58
-150 -70 -313 -35 -52 11 -101 23 -109 26 -8 4 -65 9 -127 13 l-112 6 62 52
c98 81 309 299 392 403 41 52 97 136 123 185 l47 90 0 105 c0 89 -3 111 -22
145 -52 98 -134 164 -235 191 -59 15 -172 17 -232 3z"/>
<path d="M17060 10492 c-208 -59 -332 -183 -260 -260 32 -34 64 -28 102 19
104 130 145 159 221 159 107 0 147 -111 82 -225 -43 -74 -180 -187 -304 -250
-70 -35 -92 -104 -38 -119 12 -3 65 -3 118 1 274 17 503 -130 524 -338 12
-118 -41 -256 -140 -366 -168 -187 -518 -295 -707 -218 -92 38 -148 30 -148
-21 0 -62 96 -103 261 -111 157 -8 298 26 474 114 215 107 385 283 446 460 35
101 33 223 -6 318 -37 90 -130 186 -225 231 -62 30 -186 69 -240 76 -22 3 -19
7 35 44 75 52 156 137 185 194 13 26 25 70 27 105 4 51 2 65 -19 95 -28 41
-77 76 -127 90 -69 21 -191 22 -261 2z"/>
<path d="M1962 10460 c-91 -33 -211 -111 -284 -185 -164 -166 -221 -327 -169
-478 37 -107 97 -173 203 -222 103 -48 277 -29 418 46 59 31 83 59 74 84 -8
20 -18 19 -80 -4 -185 -71 -397 13 -434 171 -18 72 -8 212 18 271 27 61 105
143 163 172 57 30 167 49 222 41 95 -15 168 -103 207 -248 20 -73 22 -99 17
-208 -18 -394 -271 -872 -537 -1015 -62 -33 -76 -45 -78 -67 -3 -22 2 -29 23
-34 70 -17 185 56 356 226 231 230 348 425 415 688 30 118 43 328 25 411 -30
140 -135 278 -256 336 -51 25 -74 30 -155 32 -73 2 -107 -2 -148 -17z"/>
<path d="M16278 6690 c-56 -47 -316 -400 -539 -733 -142 -212 -170 -265 -172
-324 -2 -39 2 -48 30 -73 42 -38 89 -43 377 -39 130 2 236 2 236 -1 -2 -37
-38 -207 -71 -336 -24 -89 -24 -126 -1 -147 24 -22 65 -22 84 1 18 20 22 32
84 288 25 105 49 196 53 202 4 6 36 14 71 17 211 18 308 60 298 128 -6 40 -46
49 -171 38 -160 -15 -161 -15 -153 12 41 143 90 334 111 430 16 72 16 79 1
102 -35 53 -126 19 -141 -52 -4 -15 -22 -84 -41 -153 -36 -133 -66 -244 -87
-325 l-13 -50 -184 0 c-187 0 -240 6 -240 27 0 59 436 729 565 869 50 54 60
80 44 111 -16 31 -28 38 -69 38 -25 0 -46 -9 -72 -30z"/>
<path d="M2975 6545 c-292 -48 -425 -187 -360 -376 22 -64 100 -186 177 -278
l67 -80 -95 -76 c-110 -89 -193 -184 -237 -275 -27 -55 -32 -78 -35 -156 -5
-112 17 -172 84 -234 67 -62 122 -82 236 -88 108 -5 203 17 287 65 127 74 211
206 211 334 0 93 -69 250 -167 378 -18 24 -33 47 -33 51 0 7 207 163 290 218
87 59 114 124 53 130 -43 4 -60 -5 -420 -231 -15 -10 -164 187 -203 269 -17
34 -30 75 -30 90 0 62 61 124 160 165 48 20 73 23 200 23 118 1 151 -2 176
-16 52 -29 92 -83 115 -158 22 -73 43 -96 79 -85 33 10 60 54 60 97 0 176
-289 286 -615 233z m38 -907 c99 -140 128 -234 103 -342 -25 -104 -72 -167
-156 -205 -148 -67 -299 36 -300 205 0 98 37 160 177 293 63 61 119 111 124
111 4 0 28 -28 52 -62z"/>
<path d="M6020 3990 c-36 -4 -199 -8 -363 -9 -311 -1 -345 -5 -361 -46 -11
-29 -7 -63 10 -79 20 -21 131 -21 394 -1 259 19 328 21 343 6 16 -16 -20 -116
-83 -236 -375 -710 -566 -1143 -595 -1347 -6 -39 -4 -49 14 -67 28 -28 65 -36
100 -21 54 22 77 68 178 360 100 290 277 670 484 1040 107 190 138 261 139
310 0 89 -66 111 -260 90z"/>
<path d="M13870 3880 c-36 -4 -193 -8 -350 -9 -163 -1 -301 -6 -323 -12 -20
-5 -44 -21 -53 -33 -27 -43 -114 -284 -154 -430 -36 -129 -26 -136 190 -136
153 0 212 -10 302 -52 127 -58 198 -161 206 -300 11 -178 -74 -333 -243 -447
-88 -59 -158 -86 -285 -113 -117 -25 -194 -20 -272 16 -68 31 -111 33 -138 6
-43 -43 -9 -101 72 -125 66 -19 256 -20 363 -1 425 76 774 397 752 691 -10
130 -61 225 -162 302 -68 52 -176 104 -262 128 -90 24 -282 55 -345 55 -51 0
-58 2 -58 20 0 24 76 238 91 256 9 11 63 14 268 14 367 0 483 23 510 102 20
55 8 82 -32 76 -7 0 -41 -4 -77 -8z"/>
<path d="M9785 2908 c-99 -35 -314 -224 -438 -383 -164 -212 -256 -418 -286
-638 -14 -98 -14 -258 -1 -315 29 -125 137 -265 248 -319 53 -26 66 -28 173
-28 l117 0 93 48 c162 82 277 193 349 332 101 198 35 409 -162 512 -48 25 -63
28 -158 28 -84 0 -118 -5 -169 -23 -123 -44 -191 -93 -177 -128 7 -18 35 -16
101 10 52 20 168 20 231 1 78 -24 125 -63 162 -135 33 -63 34 -67 30 -165 -3
-84 -9 -109 -33 -159 -36 -75 -100 -140 -170 -172 -59 -27 -168 -41 -230 -30
-84 16 -174 150 -197 293 -61 390 211 986 538 1179 72 43 89 69 58 91 -21 15
-38 15 -79 1z"/>
</g>
</svg>
