<?xml version="1.0" standalone="no"?>
<!DOCTYPE svg PUBLIC "-//W3C//DTD SVG 20010904//EN"
 "http://www.w3.org/TR/2001/REC-SVG-20010904/DTD/svg10.dtd">
<svg version="1.0" xmlns="http://www.w3.org/2000/svg"
 width="512.000000pt" height="512.000000pt" viewBox="0 0 512.000000 512.000000"
 preserveAspectRatio="xMidYMid meet">

<g transform="translate(0.000000,512.000000) scale(0.100000,-0.100000)"
fill="#000000" stroke="none">
<path d="M2750 4575 l0 -95 -125 0 -125 0 0 -640 0 -640 -100 0 -100 0 0 -95
0 -95 -125 0 -125 0 0 -95 0 -95 -160 0 -160 0 0 -100 0 -100 -95 0 -95 0 0
-95 0 -95 -195 0 -195 0 0 95 0 95 -95 0 -95 0 0 100 0 100 -95 0 -95 0 0 190
0 190 -95 0 -95 0 0 -575 0 -575 95 0 95 0 0 -95 0 -95 95 0 95 0 0 -130 0
-130 95 0 95 0 0 -95 0 -95 95 0 95 0 0 -95 0 -95 100 0 100 0 0 -385 0 -385
190 0 190 0 0 95 0 95 -95 0 -95 0 0 95 0 95 95 0 95 0 0 95 0 95 95 0 95 0 0
100 0 100 95 0 95 0 0 -100 0 -100 100 0 100 0 0 -285 0 -285 220 0 220 0 0
95 0 95 -95 0 -95 0 0 385 0 385 95 0 95 0 0 95 0 95 100 0 100 0 0 160 0 160
95 0 95 0 0 350 0 350 95 0 95 0 0 -95 0 -95 95 0 95 0 0 195 0 195 -190 0
-190 0 0 190 0 190 385 0 385 0 0 95 0 95 -290 0 -290 0 0 95 0 95 480 0 480
0 0 450 0 450 -95 0 -95 0 0 95 0 95 -770 0 -770 0 0 -95z m390 -320 l0 -95
-100 0 -100 0 0 95 0 95 100 0 100 0 0 -95z"/>
</g>
</svg>
