<?xml version="1.0" standalone="no"?>
<!DOCTYPE svg PUBLIC "-//W3C//DTD SVG 20010904//EN"
 "http://www.w3.org/TR/2001/REC-SVG-20010904/DTD/svg10.dtd">
<svg version="1.0" xmlns="http://www.w3.org/2000/svg"
 width="415.000000pt" height="225.000000pt" viewBox="0 0 415.000000 225.000000"
 preserveAspectRatio="xMidYMid meet">

<g transform="translate(0.000000,225.000000) scale(0.100000,-0.100000)"
fill="#000000" stroke="none">
<path d="M1948 2144 c-54 -29 -58 -50 -58 -318 l0 -245 -37 15 c-23 10 -49 13
-71 9 -35 -6 -84 -46 -94 -75 -4 -11 -8 -12 -19 -4 -45 35 -122 22 -164 -27
l-25 -31 0 -235 c0 -225 1 -238 25 -310 75 -223 269 -365 500 -366 160 -2 293
57 403 177 61 67 116 176 131 260 6 34 11 184 11 343 l0 283 -25 16 c-20 13
-30 14 -62 4 -21 -7 -44 -17 -51 -23 -7 -5 -14 -8 -16 -6 -2 2 14 67 36 144
46 168 46 215 -1 257 -57 51 -147 43 -186 -16 -9 -14 -35 -96 -58 -183 l-42
-158 -5 218 -5 219 -37 34 c-31 28 -45 34 -80 34 -24 -1 -55 -7 -70 -16z m117
-49 l25 -24 0 -324 0 -325 -26 -6 c-17 -5 -24 -12 -22 -24 5 -25 141 -25 146
0 2 12 -5 19 -22 24 -17 4 -26 13 -26 27 0 11 30 131 66 266 69 261 83 291
135 291 41 0 58 -9 75 -41 14 -28 12 -41 -36 -222 -28 -105 -58 -209 -66 -230
-9 -25 -14 -76 -14 -156 l0 -118 -62 -17 c-115 -31 -200 -116 -234 -233 -19
-66 -16 -98 11 -98 17 0 21 9 26 50 8 64 37 120 86 167 42 41 114 77 153 78
51 1 55 10 60 152 5 100 10 142 24 171 21 43 67 82 109 92 l28 7 -3 -313 c-4
-357 -6 -370 -94 -489 -86 -118 -215 -188 -360 -197 -99 -7 -166 7 -256 54
-161 83 -267 259 -268 440 l0 51 31 -15 c37 -18 92 -12 129 15 25 19 26 19 49
1 53 -43 129 -33 176 23 l25 30 0 430 0 430 29 29 c36 36 73 37 106 4z m-205
-555 c28 -28 32 -53 28 -200 -3 -124 -4 -133 -27 -151 -31 -25 -79 -24 -108 3
-22 21 -23 28 -23 172 0 140 1 151 22 173 27 29 80 31 108 3z m-205 -65 c24
-23 25 -30 25 -141 0 -107 -2 -120 -22 -141 -30 -32 -81 -31 -114 2 -25 25
-26 29 -22 146 3 113 5 122 27 140 32 26 77 24 106 -6z"/>
<path d="M3471 2135 c-16 -15 -36 -42 -43 -61 -9 -25 -16 -33 -28 -28 -39 18
-90 16 -123 -5 -45 -27 -57 -58 -57 -141 0 -69 -5 -81 -27 -59 -18 18 -87 14
-121 -7 -63 -36 -63 -43 -60 -467 l3 -382 26 -72 c81 -220 277 -357 509 -356
116 0 194 24 292 90 77 51 135 114 178 194 55 103 60 143 60 475 0 283 -1 302
-19 318 -16 15 -25 16 -58 7 -22 -6 -59 -24 -81 -41 l-42 -30 0 175 c0 198 -8
231 -62 265 -33 21 -87 23 -130 5 -15 -6 -18 -2 -18 24 0 102 -122 160 -199
96z m130 -44 l29 -29 0 -321 c0 -307 -1 -321 -19 -321 -23 0 -42 -22 -33 -36
9 -14 135 -13 144 0 10 14 -11 36 -34 36 -18 0 -19 9 -16 260 3 252 4 260 25
281 29 30 76 29 108 -1 l25 -23 0 -354 0 -353 -27 -6 c-159 -33 -273 -159
-273 -300 0 -36 3 -44 19 -44 15 0 20 10 25 51 17 123 112 227 225 245 74 12
81 26 81 163 0 66 5 132 11 148 19 51 92 113 134 113 13 0 15 -33 15 -268 0
-150 -5 -295 -11 -328 -16 -87 -63 -176 -129 -248 -153 -163 -389 -203 -584
-98 -69 36 -167 136 -201 202 -52 103 -55 126 -55 528 l0 373 25 24 c33 33 70
32 106 -4 l29 -29 0 -175 0 -175 -31 -11 c-52 -18 -30 -36 49 -39 66 -3 72 -1
72 16 0 13 -9 22 -25 26 l-25 6 0 280 c0 278 0 279 23 306 31 35 77 37 112 4
l25 -23 0 -263 0 -263 -22 -3 c-15 -2 -23 -10 -23 -22 0 -17 8 -19 70 -20 63
-1 70 1 70 19 0 13 -8 21 -22 23 l-23 3 0 315 0 315 25 24 c33 33 70 32 106
-4z"/>
<path d="M528 1685 c-15 -8 -32 -24 -38 -35 -10 -19 -13 -19 -40 -5 -49 25
-104 19 -144 -16 -33 -29 -37 -30 -58 -15 -48 34 -138 13 -172 -39 -16 -24
-17 -58 -14 -344 l3 -318 42 -85 c179 -361 682 -363 858 -4 44 89 54 164 55
391 0 191 -8 223 -67 260 -27 17 -32 26 -33 58 0 78 -50 127 -127 127 -21 0
-48 -7 -61 -15 -20 -15 -23 -14 -50 16 -23 26 -37 32 -78 35 -32 3 -58 -1 -76
-11z m101 -40 c35 -18 41 -32 41 -101 l0 -54 -80 0 -80 0 0 56 c0 48 4 59 29
85 33 33 50 35 90 14z m-188 -54 c21 -22 29 -39 29 -65 l0 -36 -49 0 c-31 0
-53 -5 -61 -15 -31 -37 3 -131 65 -183 l36 -29 -28 -22 c-33 -27 -79 -22 -105
10 -15 18 -18 43 -18 171 0 145 1 150 25 173 33 33 70 32 106 -4z m392 18 c29
-13 47 -48 47 -89 l0 -30 -80 0 -80 0 0 40 c0 69 53 106 113 79z m-590 -50
c14 -17 17 -41 17 -134 0 -62 -3 -121 -6 -130 -7 -18 -55 -45 -79 -45 -9 0
-30 13 -46 29 -29 29 -29 31 -29 141 0 111 0 112 30 142 26 25 36 29 63 24 18
-3 40 -16 50 -27z m709 -139 c18 -23 19 -37 16 -255 -4 -259 -12 -292 -86
-390 -209 -276 -626 -214 -753 113 -18 47 -23 83 -27 201 -4 138 -3 144 14
136 39 -17 104 -17 130 0 24 16 26 15 60 -14 42 -38 101 -42 152 -11 31 19 34
19 60 3 15 -9 28 -18 30 -19 2 -1 -10 -22 -26 -48 -35 -55 -55 -120 -50 -167
5 -59 30 -42 45 31 14 67 43 120 90 165 40 38 77 55 147 69 40 8 62 18 64 28
3 14 -18 16 -145 20 -135 3 -152 6 -191 28 -27 15 -54 42 -69 68 -44 75 -48
73 253 70 l266 -3 20 -25z m-337 -190 c-8 -13 -35 -13 -55 0 -11 7 -5 10 23
10 23 0 36 -4 32 -10z"/>
<path d="M210 250 c0 -143 1 -150 20 -150 18 0 20 7 20 61 0 57 1 60 23 57 19
-3 23 -10 27 -58 4 -48 8 -55 28 -58 20 -3 22 0 22 50 0 30 -6 62 -13 73 -12
15 -12 23 1 47 18 36 10 98 -15 115 -9 7 -38 13 -65 13 l-48 0 0 -150z m85 65
c0 -34 -3 -40 -22 -43 -21 -3 -23 1 -23 36 0 43 7 54 30 50 10 -2 15 -15 15
-43z"/>
<path d="M396 385 c-21 -22 -29 -71 -25 -164 5 -92 22 -121 74 -121 54 0 70
28 72 130 2 93 -8 148 -29 162 -21 13 -76 9 -92 -7z m69 -135 c0 -98 -1 -105
-20 -105 -18 0 -20 8 -23 94 -3 107 1 124 25 119 16 -3 18 -16 18 -108z"/>
<path d="M559 383 c-15 -17 -26 -185 -15 -228 9 -35 33 -55 67 -55 40 0 69 32
69 75 0 28 -4 35 -20 35 -14 0 -20 -7 -20 -24 0 -28 -26 -54 -41 -39 -5 5 -9
52 -7 109 3 91 5 99 23 99 14 0 21 -8 23 -27 2 -20 9 -28 23 -28 24 0 26 45 3
78 -19 27 -84 31 -105 5z"/>
<path d="M710 249 c0 -150 0 -150 23 -147 19 3 22 10 25 56 2 28 6 52 10 52 4
0 16 -24 27 -52 15 -39 26 -54 43 -56 28 -4 28 -2 -9 89 l-30 77 30 61 c37 72
37 71 11 71 -14 0 -28 -17 -49 -57 l-30 -58 -1 58 c0 54 -1 57 -25 57 l-25 0
0 -151z"/>
<path d="M1436 384 c-10 -9 -16 -33 -16 -57 0 -34 6 -48 39 -82 46 -47 58 -77
37 -94 -19 -16 -36 -6 -36 20 0 14 -7 19 -26 19 -24 0 -25 -3 -19 -27 14 -60
65 -81 113 -47 16 11 22 25 22 54 0 32 -8 48 -46 91 -29 33 -44 58 -42 72 4
29 38 35 45 8 8 -30 43 -28 43 2 0 49 -78 77 -114 41z"/>
<path d="M1596 384 c-13 -12 -16 -40 -16 -134 0 -111 1 -120 22 -134 53 -37
108 -8 108 57 0 30 -4 37 -20 37 -15 0 -20 -7 -20 -29 0 -35 -15 -48 -36 -30
-11 9 -14 33 -12 108 3 88 5 96 23 96 14 0 21 -8 23 -27 2 -20 9 -28 23 -28
15 0 19 7 19 34 0 44 -22 66 -65 66 -18 0 -41 -7 -49 -16z"/>
<path d="M1742 253 c3 -145 3 -148 26 -151 22 -3 22 -3 22 147 l0 151 -25 0
-26 0 3 -147z"/>
<path d="M1837 382 c-10 -10 -17 -35 -17 -55 0 -29 9 -47 46 -88 30 -33 44
-58 42 -72 -4 -30 -42 -30 -46 0 -2 15 -10 23 -23 23 -14 0 -19 -7 -19 -29 0
-53 78 -83 112 -43 39 43 30 93 -27 152 -32 33 -39 49 -36 78 2 20 32 14 38
-8 4 -13 14 -20 30 -20 19 0 24 4 19 16 -3 9 -6 19 -6 24 0 38 -84 54 -113 22z"/>
<path d="M1997 382 c-10 -10 -17 -35 -17 -55 0 -29 9 -47 46 -88 30 -33 44
-58 42 -72 -4 -30 -42 -30 -46 0 -5 36 -42 31 -42 -5 0 -36 28 -62 67 -62 41
0 63 27 63 78 0 34 -6 48 -34 75 -41 41 -59 74 -52 93 8 21 37 17 43 -6 3 -11
14 -20 24 -20 24 0 26 42 3 64 -21 22 -77 20 -97 -2z"/>
<path d="M2157 382 c-14 -15 -17 -40 -17 -130 0 -126 12 -152 70 -152 58 0 70
26 70 148 0 129 -10 152 -69 152 -24 0 -44 -7 -54 -18z m73 -126 c0 -106 -8
-129 -35 -106 -11 9 -15 35 -15 95 0 96 5 115 31 115 17 0 19 -9 19 -104z"/>
<path d="M2310 249 c0 -150 0 -150 23 -147 19 3 22 10 25 61 3 48 6 57 22 57
16 0 19 -9 22 -57 3 -51 6 -58 26 -61 21 -3 22 0 22 57 0 37 -5 65 -14 73 -11
12 -11 17 0 33 21 28 18 91 -6 115 -15 15 -33 20 -70 20 l-50 0 0 -151z m88
63 c3 -37 1 -42 -17 -42 -18 0 -21 6 -21 46 0 38 3 45 18 42 12 -2 18 -15 20
-46z"/>
<path d="M2503 392 c-18 -11 -32 -57 -26 -83 3 -13 20 -40 38 -59 47 -51 57
-73 41 -95 -15 -21 -36 -12 -36 16 0 14 -7 19 -25 19 -32 0 -33 -27 -4 -64 41
-53 119 -21 119 49 0 27 -10 46 -46 86 -29 33 -44 58 -42 72 4 29 38 35 45 8
3 -12 13 -21 24 -21 25 0 25 41 1 63 -19 18 -68 22 -89 9z"/>
<path d="M3152 253 c3 -144 4 -148 25 -151 20 -3 22 1 25 55 3 53 5 58 28 61
44 6 60 30 60 89 0 71 -21 93 -90 93 l-51 0 3 -147z m89 83 c16 -34 4 -76 -21
-76 -17 0 -20 7 -20 50 0 56 22 69 41 26z"/>
<path d="M3321 266 c-26 -163 -26 -166 -2 -166 14 0 21 8 23 27 3 24 8 28 33
28 25 0 30 -4 33 -27 3 -22 9 -28 27 -28 21 0 24 4 20 28 -3 15 -12 70 -20
122 -26 159 -22 150 -59 150 l-33 0 -22 -134z m67 -8 c9 -57 9 -58 -15 -58
-18 0 -23 4 -20 18 3 9 9 40 12 67 9 56 11 54 23 -27z"/>
<path d="M3480 249 c0 -150 0 -150 23 -147 19 3 22 10 25 56 3 50 5 53 33 59
40 8 59 38 59 95 0 66 -23 88 -90 88 l-50 0 0 -151z m88 58 c3 -42 1 -47 -17
-47 -18 0 -21 6 -21 51 0 43 3 50 18 47 13 -2 18 -15 20 -51z"/>
<path d="M3640 250 l0 -151 63 3 c54 3 62 5 62 23 0 16 -8 21 -37 23 -37 3
-38 4 -38 43 0 37 2 39 30 39 23 0 30 4 30 20 0 16 -7 20 -30 20 -29 0 -30 2
-30 45 l0 45 40 0 c33 0 40 3 40 20 0 18 -7 20 -65 20 l-65 0 0 -150z"/>
<path d="M3800 250 c0 -143 1 -150 20 -150 18 0 20 7 20 61 0 57 1 60 23 57
19 -3 23 -10 27 -58 4 -48 8 -55 28 -58 20 -3 22 0 22 50 0 32 -6 62 -15 76
-14 19 -14 24 1 47 20 31 13 94 -13 112 -9 7 -38 13 -65 13 l-48 0 0 -150z
m85 65 c0 -34 -3 -40 -22 -43 -21 -3 -23 1 -23 43 0 42 2 46 23 43 19 -3 22
-9 22 -43z"/>
</g>
</svg>
