<?xml version="1.0" standalone="no"?>
<!DOCTYPE svg PUBLIC "-//W3C//DTD SVG 20010904//EN"
 "http://www.w3.org/TR/2001/REC-SVG-20010904/DTD/svg10.dtd">
<svg version="1.0" xmlns="http://www.w3.org/2000/svg"
 width="350.000000pt" height="254.000000pt" viewBox="0 0 350.000000 254.000000"
 preserveAspectRatio="xMidYMid meet">

<g transform="translate(0.000000,254.000000) scale(0.100000,-0.100000)"
fill="#000000" stroke="none">
<path d="M1000 2190 l0 -350 -485 0 -485 0 0 -25 0 -25 485 0 485 0 0 -435 0
-435 -495 0 -495 0 0 -25 0 -25 495 0 495 0 0 -415 0 -415 25 0 25 0 0 415 0
415 605 0 605 0 0 -420 0 -420 25 0 25 0 0 420 0 420 580 0 580 0 0 25 0 25
-580 0 -580 0 0 435 0 435 580 0 580 0 0 25 0 25 -580 0 -580 0 0 335 0 335
-25 0 -25 0 0 -335 0 -335 -605 0 -605 0 0 350 0 350 -25 0 -25 0 0 -350z
m1260 -835 l0 -435 -605 0 -605 0 0 435 0 435 605 0 605 0 0 -435z"/>
<path d="M1570 1650 c-109 -28 -210 -103 -249 -184 -51 -109 -34 -218 48 -308
62 -68 128 -104 219 -120 142 -24 270 18 363 120 75 82 94 167 63 272 -22 75
-115 168 -199 199 -66 25 -188 36 -245 21z m206 -61 c56 -17 77 -31 124 -77
101 -102 107 -216 18 -317 -94 -107 -226 -140 -374 -94 -56 17 -77 31 -124 77
-41 42 -60 70 -69 104 -35 126 47 258 191 306 81 27 149 27 234 1z"/>
<path d="M107 2523 c-18 -17 5 -40 173 -172 99 -79 180 -146 180 -150 0 -3
-68 -64 -150 -135 -144 -124 -170 -156 -130 -164 8 -1 60 37 115 84 55 48 125
109 156 135 l57 49 163 -130 c90 -71 171 -129 179 -127 41 7 13 39 -140 160
-88 70 -160 129 -160 131 0 2 74 68 165 146 158 137 189 175 143 175 -10 0
-92 -64 -182 -142 -91 -79 -168 -143 -171 -143 -3 0 -87 65 -188 145 -100 80
-187 145 -193 145 -6 0 -14 -3 -17 -7z"/>
<path d="M2740 2510 c-109 -28 -210 -103 -249 -184 -51 -109 -34 -218 48 -308
62 -68 128 -104 219 -120 142 -24 270 18 363 120 75 82 94 167 63 272 -22 75
-115 168 -199 199 -66 25 -188 36 -245 21z m206 -61 c56 -17 77 -31 124 -77
101 -102 107 -216 18 -317 -94 -107 -226 -140 -374 -94 -56 17 -77 31 -124 77
-41 42 -60 70 -69 104 -35 126 47 258 191 306 81 27 149 27 234 1z"/>
<path d="M380 1670 c-109 -28 -210 -103 -249 -184 -51 -109 -34 -218 48 -308
62 -68 128 -104 219 -120 142 -24 270 18 363 120 75 82 94 167 63 272 -22 75
-115 168 -199 199 -66 25 -188 36 -245 21z m206 -61 c56 -17 77 -31 124 -77
101 -102 107 -216 18 -317 -94 -107 -226 -140 -374 -94 -56 17 -77 31 -124 77
-41 42 -60 70 -69 104 -35 126 47 258 191 306 81 27 149 27 234 1z"/>
<path d="M1267 753 c-18 -17 5 -40 173 -172 99 -79 180 -146 180 -150 0 -3
-68 -64 -150 -135 -144 -124 -170 -156 -130 -164 8 -1 60 37 115 84 55 48 125
109 156 135 l57 49 163 -130 c90 -71 171 -129 179 -127 41 7 13 39 -140 160
-88 70 -160 129 -160 131 0 2 74 68 165 146 158 137 189 175 143 175 -10 0
-92 -64 -182 -142 -91 -79 -168 -143 -171 -143 -3 0 -87 65 -188 145 -100 80
-187 145 -193 145 -6 0 -14 -3 -17 -7z"/>
<path d="M2487 723 c-18 -17 5 -40 173 -172 99 -79 180 -146 180 -150 0 -3
-68 -64 -150 -135 -144 -124 -170 -156 -130 -164 8 -1 60 37 115 84 55 48 125
109 156 135 l57 49 163 -130 c90 -71 171 -129 179 -127 41 7 13 39 -140 160
-88 70 -160 129 -160 131 0 2 74 68 165 146 158 137 189 175 143 175 -10 0
-92 -64 -182 -142 -91 -79 -168 -143 -171 -143 -3 0 -87 65 -188 145 -100 80
-187 145 -193 145 -6 0 -14 -3 -17 -7z"/>
</g>
</svg>
